<svg xmlns="http://www.w3.org/2000/svg" version="1.1" xmlns:xlink="http://www.w3.org/1999/xlink" xmlns:svgjs="http://svgjs.com/svgjs" width="1500" height="1000" preserveAspectRatio="none" viewBox="0 0 1500 1000"><g mask="url(&quot;#SvgjsMask1852&quot;)" fill="none"><rect width="1500" height="1000" x="0" y="0" fill="rgba(237, 233, 170, 1)"></rect><path d="M0,549.669C111.837,538.515,226.318,558.26,328.002,510.382C437.91,458.631,545.012,382.404,592.611,270.636C639.849,159.716,604.275,34.753,580.932,-83.525C558.687,-196.239,537.041,-313.349,460.454,-398.986C384.408,-484.019,273.23,-526.346,162.053,-551.903C55.555,-576.384,-55.423,-576.317,-158.962,-541.375C-259.983,-507.283,-331.699,-426.851,-412.975,-357.845C-509.846,-275.598,-646.807,-220.272,-681.235,-97.947C-716.117,25.992,-642.735,151.983,-589.454,269.195C-536.09,386.59,-489.375,524.883,-372.93,580.29C-257.973,634.989,-126.679,562.303,0,549.669" fill="#e6e088"></path><path d="M1500 1412.3809999999999C1576.977 1427.402 1663.654 1396.473 1719.237 1341.1399999999999 1772.558 1288.059 1755.376 1199.278 1783.973 1129.686 1811.002 1063.911 1873.5529999999999 1015.688 1881.988 945.078 1891.649 864.21 1896.503 762.816 1834.0430000000001 710.55 1769.853 656.836 1671.708 706.1610000000001 1588.29 699.313 1525.494 694.158 1464.788 656.473 1404.659 675.299 1344.843 694.027 1306.058 749.2280000000001 1268.53 799.4300000000001 1233.251 846.623 1204.787 898.051 1194.74 956.11 1184.493 1015.323 1186.939 1076.916 1210.98 1131.991 1235.251 1187.593 1286.079 1222.868 1329.623 1265.112 1384.616 1318.463 1424.798 1397.7060000000001 1500 1412.3809999999999" fill="#f4f2cc"></path></g><defs><mask id="SvgjsMask1852"><rect width="1500" height="1000" fill="#ffffff"></rect></mask></defs></svg>